<svg width="19" height="19" viewBox="0 0 19 19" fill="none" xmlns="http://www.w3.org/2000/svg">
<path d="M18 1H19C19 0.734784 18.8946 0.48043 18.7071 0.292893C18.5195 0.105357 18.2652 0 18 0V1ZM17 13C17 13.2652 17.1053 13.5196 17.2929 13.7071C17.4804 13.8946 17.7347 14 18 14C18.2652 14 18.5195 13.8946 18.7071 13.7071C18.8946 13.5196 19 13.2652 19 13H17ZM5.99996 0C5.73474 0 5.48039 0.105357 5.29285 0.292893C5.10532 0.48043 4.99996 0.734784 4.99996 1C4.99996 1.26522 5.10532 1.51957 5.29285 1.70711C5.48039 1.89464 5.73474 2 5.99996 2V0ZM1.29296 16.293C1.19745 16.3852 1.12127 16.4956 1.06886 16.6176C1.01645 16.7396 0.988862 16.8708 0.987709 17.0036C0.986555 17.1364 1.01186 17.2681 1.06214 17.391C1.11242 17.5138 1.18667 17.6255 1.28056 17.7194C1.37446 17.8133 1.48611 17.8875 1.60901 17.9378C1.7319 17.9881 1.86358 18.0134 1.99636 18.0123C2.12914 18.0111 2.26036 17.9835 2.38236 17.9311C2.50437 17.8787 2.61471 17.8025 2.70696 17.707L1.29296 16.293ZM17 1V13H19V1H17ZM18 0H5.99996V2H18V0ZM17.293 0.293L1.29296 16.293L2.70696 17.707L18.707 1.707L17.293 0.293Z" fill="#BE185D"/>
</svg>
